<?xml version="1.0" standalone="no"?>
<!DOCTYPE svg PUBLIC "-//W3C//DTD SVG 20010904//EN"
 "http://www.w3.org/TR/2001/REC-SVG-20010904/DTD/svg10.dtd">
<svg version="1.0" xmlns="http://www.w3.org/2000/svg"
 width="260.000000pt" height="260.000000pt" viewBox="0 0 260.000000 260.000000"
 preserveAspectRatio="xMidYMid meet">
<metadata>
Created by potrace 1.11, written by Peter Selinger 2001-2013
</metadata>
<g transform="translate(0.000000,260.000000) scale(0.100000,-0.100000)"
fill="#000000" stroke="none">
<path d="M0 1300 l0 -1300 1300 0 1300 0 0 1300 0 1300 -1300 0 -1300 0 0
-1300z m1590 831 c88 -32 135 -53 134 -62 -1 -15 -543 -1451 -549 -1458 -8 -7
-295 102 -295 112 0 8 145 393 541 1435 5 12 14 22 21 21 7 0 74 -22 148 -48z
m-760 -480 l0 -189 -150 -85 -150 -84 147 -80 148 -79 3 -192 2 -193 -62 40
c-35 22 -190 120 -346 218 l-282 178 2 109 3 109 340 219 c187 120 341 218
343 218 1 0 2 -85 2 -189z m1300 -39 l325 -209 3 -109 2 -109 -282 -178 c-156
-98 -311 -196 -346 -218 l-62 -40 2 192 3 191 153 80 154 81 -39 21 c-21 12
-91 50 -155 85 l-118 62 0 190 c0 178 1 189 18 180 9 -6 163 -104 342 -219z"/>
</g>
</svg>
